Coordinates
version=1
nRows=18
nColumns=63
inDegrees=yes

Units are S.I. units (second, meters, Newtons, ...)
If the header above contains a line with 'inDegrees', this indicates whether rotational values are in degrees (yes) or radians (no).

endheader
time	pelvis_tilt	pelvis_list	pelvis_rotation	pelvis_tx	pelvis_ty	pelvis_tz	hip_flexion_r	hip_adduction_r	hip_rotation_r	knee_angle_r	knee_angle_r_beta	ankle_angle_r	subtalar_angle_r	mtp_angle_r	hip_flexion_l	hip_adduction_l	hip_rotation_l	knee_angle_l	knee_angle_l_beta	ankle_angle_l	subtalar_angle_l	mtp_angle_l	L5_S1_Flex_Ext	L5_S1_Lat_Bending	L5_S1_axial_rotation	L4_L5_Flex_Ext	L4_L5_Lat_Bending	L4_L5_axial_rotation	L3_L4_Flex_Ext	L3_L4_Lat_Bending	L3_L4_axial_rotation	L2_L3_Flex_Ext	L2_L3_Lat_Bending	L2_L3_axial_rotation	L1_L2_Flex_Ext	L1_L2_Lat_Bending	L1_L2_axial_rotation	L1_T12_Flex_Ext	L1_T12_Lat_Bending	L1_T12_axial_rotation	Abs_r3	Abs_r2	Abs_r1	Abs_t1	Abs_t2	neck_flexion	neck_bending	neck_rotation	arm_flex_r	arm_add_r	arm_rot_r	elbow_flex_r	pro_sup_r	wrist_flex_r	wrist_dev_r	arm_flex_l	arm_add_l	arm_rot_l	elbow_flex_l	pro_sup_l	wrist_flex_l	wrist_dev_l
2.033898	-6.321377	-10.557707	72.812576	0.312707	0.914448	0.603409	10.534391	-1.888104	23.525732	3.397733	0.059302	27.265907	-13.402950	0.000000	7.790588	2.845084	-2.274866	1.977938	0.034522	28.601380	-15.053814	0.000000	0.021043	-0.920199	1.160163	0.039079	-1.223865	1.232673	0.034571	-2.237372	1.232673	0.024050	-2.237372	1.015143	0.019540	-1.876470	0.942632	0.012024	-1.425389	0.870122	0.150307	-10.409478	6.452479	0.000000	0.000000	13.959703	7.408961	-9.029549	31.241169	6.949206	27.170450	139.153924	89.362617	-9.410282	13.173192	-0.884647	-16.627252	38.592083	27.197995	81.546194	-12.769919	-6.909070
2.050847	-6.414332	-10.609751	72.817657	0.313015	0.914426	0.603320	10.519556	-1.961941	23.950480	3.230390	0.056381	26.914359	-14.010666	0.000000	7.873133	2.903396	-2.378630	1.968253	0.034352	28.586753	-15.015085	0.000000	0.025285	-0.936552	1.208434	0.046958	-1.245614	1.283961	0.041542	-2.277132	1.283961	0.028899	-2.277132	1.057380	0.023480	-1.909816	0.981853	0.014448	-1.450718	0.906326	0.180612	-10.594459	6.720948	0.000000	0.000000	13.973567	7.595291	-9.307619	30.815375	7.081506	26.882494	139.336613	89.362539	-9.087302	12.834036	-0.829716	-16.668827	38.442163	27.224229	81.845039	-12.439219	-6.653764
2.067797	-6.509528	-10.664986	72.839278	0.313278	0.914415	0.603219	10.542697	-2.038651	24.181500	3.152579	0.055023	26.614632	-14.417987	0.000000	7.961951	2.965675	-2.507006	1.961564	0.034236	28.574634	-14.932865	0.000000	0.029830	-0.952387	1.249732	0.055397	-1.266674	1.327840	0.049007	-2.315633	1.327840	0.034093	-2.315633	1.093515	0.027700	-1.942107	1.015407	0.017045	-1.475247	0.937299	0.213072	-10.773589	6.950634	0.000000	0.000000	13.970836	7.802111	-9.492790	30.394087	7.268016	26.577108	139.478611	89.360597	-8.681426	12.546090	-0.720948	-16.720980	38.650149	27.169302	81.992254	-12.152599	-6.404996
2.084746	-6.613765	-10.716413	72.830898	0.313541	0.914416	0.603130	10.604908	-2.114056	24.338731	3.164434	0.055230	26.351606	-14.721779	0.000000	8.047949	3.036399	-2.649000	1.954326	0.034109	28.544576	-14.885886	0.000000	0.034081	-0.968833	1.293339	0.063291	-1.288548	1.374173	0.055991	-2.355621	1.374173	0.038951	-2.355621	1.131672	0.031647	-1.975644	1.050838	0.019474	-1.500722	0.970004	0.243434	-10.959633	7.193164	0.000000	0.000000	13.968937	8.028451	-9.622692	29.994936	7.468231	26.295265	139.590453	89.357578	-8.323520	12.227049	-0.555244	-16.788761	39.179300	27.052150	82.010838	-11.939168	-6.181127
2.101695	-6.714957	-10.765673	72.835078	0.313750	0.914422	0.603023	10.683979	-2.180758	24.513628	3.235250	0.056466	26.099716	-15.094892	0.000000	8.126541	3.109815	-2.721696	1.944102	0.033931	28.484136	-14.912407	0.000000	0.038193	-0.984410	1.328726	0.070929	-1.309265	1.411771	0.062748	-2.393495	1.411771	0.043651	-2.393495	1.162635	0.035466	-2.007409	1.079590	0.021824	-1.524851	0.996544	0.272811	-11.135844	7.389973	0.000000	0.000000	13.964802	8.265326	-9.687798	29.640787	7.660611	26.040700	139.679860	89.353931	-7.974174	11.919149	-0.382052	-16.859125	39.791294	26.917593	82.013658	-11.777795	-5.970150
2.118644	-6.802268	-10.799359	72.854022	0.313895	0.914457	0.602934	10.779025	-2.242538	24.433801	3.386420	0.059104	25.980741	-15.127481	0.000000	8.193069	3.175359	-2.923861	1.960316	0.034214	28.474135	-14.724008	0.000000	0.039684	-0.998302	1.349056	0.073698	-1.327741	1.433372	0.065197	-2.427271	1.433372	0.045355	-2.427271	1.180424	0.036851	-2.035737	1.096108	0.022676	-1.546369	1.011792	0.283461	-11.292988	7.503043	0.000000	0.000000	13.951560	8.527257	-9.670366	29.370852	7.835049	25.833540	139.725496	89.350438	-7.610046	11.630843	-0.201559	-16.940650	40.518418	26.781100	81.775430	-11.677517	-5.853192
2.135593	-6.870535	-10.819761	72.848492	0.313999	0.914495	0.602863	10.885351	-2.277600	24.397087	3.599141	0.062817	25.929880	-15.176535	0.000000	8.231115	3.230581	-3.006135	1.971561	0.034410	28.414093	-14.709639	0.000000	0.040224	-1.009308	1.362282	0.074700	-1.342379	1.447425	0.066084	-2.454031	1.447425	0.045972	-2.454031	1.191997	0.037352	-2.058180	1.106854	0.022984	-1.563418	1.021712	0.287317	-11.417491	7.576604	0.000000	0.000000	13.919702	8.763570	-9.601731	29.202239	7.975910	25.672675	139.730497	89.345874	-7.250799	11.421979	-0.050990	-16.998947	41.109082	26.651286	81.662130	-11.661714	-5.819143
2.152542	-6.915888	-10.824656	72.843003	0.314034	0.914532	0.602840	11.000002	-2.292103	24.268567	3.870297	0.067549	25.989971	-15.078930	0.000000	8.246783	3.272306	-3.044962	1.994192	0.034805	28.345675	-14.723576	0.000000	0.039120	-1.017069	1.359009	0.072650	-1.352702	1.443947	0.064270	-2.472902	1.443947	0.044710	-2.472902	1.189133	0.036327	-2.074007	1.104195	0.022353	-1.575440	1.019257	0.279430	-11.505289	7.558400	0.000000	0.000000	13.874545	8.988155	-9.456907	29.160765	8.096870	25.543717	139.676983	89.340604	-6.804427	11.351861	0.046608	-17.029778	41.473634	26.542879	81.672642	-11.730450	-5.883554
2.169492	-6.939271	-10.805480	72.826202	0.314022	0.914571	0.602874	11.114167	-2.289194	24.034395	4.192604	0.073175	26.159847	-14.803097	0.000000	8.230247	3.302874	-3.039858	2.022962	0.035307	28.262870	-14.788236	0.000000	0.035525	-1.022124	1.341617	0.065973	-1.359425	1.425469	0.058364	-2.485193	1.425469	0.040602	-2.485193	1.173915	0.032989	-2.084316	1.090064	0.020299	-1.583271	1.006213	0.253751	-11.562475	7.461674	0.000000	0.000000	13.821054	9.207034	-9.244071	29.245692	8.201973	25.432755	139.555552	89.334508	-6.254943	11.410711	0.107372	-17.044731	41.718116	26.445574	81.736846	-11.921282	-6.046433
2.186441	-6.947473	-10.765202	72.807226	0.313981	0.914600	0.602950	11.211567	-2.273659	23.832315	4.526532	0.079003	26.354955	-14.563295	0.000000	8.184909	3.327568	-2.981439	2.053909	0.035847	28.162410	-14.909634	0.000000	0.030437	-1.025348	1.310365	0.056525	-1.363713	1.392262	0.050005	-2.493032	1.392262	0.034786	-2.493032	1.146569	0.028264	-2.090891	1.064671	0.017392	-1.588265	0.982774	0.217408	-11.598947	7.287855	0.000000	0.000000	13.760146	9.412669	-8.967403	29.446234	8.291004	25.348931	139.368341	89.327673	-5.660218	11.552311	0.116690	-17.047699	41.788098	26.370962	81.930211	-12.194119	-6.251887
2.203390	-6.938882	-10.717658	72.800301	0.313887	0.914615	0.603071	11.309360	-2.247510	23.559034	4.878962	0.085154	26.591913	-14.241079	0.000000	8.130817	3.341321	-2.909090	2.095746	0.036578	28.061320	-15.025472	0.000000	0.024401	-1.026551	1.271988	0.045315	-1.365313	1.351487	0.040088	-2.495957	1.351487	0.027888	-2.495957	1.112989	0.022659	-2.093343	1.033490	0.013943	-1.590128	0.953991	0.174292	-11.612553	7.074414	0.000000	0.000000	13.720313	9.599786	-8.713749	29.747241	8.326541	25.283056	139.159314	89.320791	-5.080714	11.769805	0.125730	-17.044431	41.872705	26.290375	82.189840	-12.573453	-6.485836
2.220339	-6.925195	-10.668125	72.762125	0.313816	0.914611	0.603222	11.407402	-2.212088	23.308187	5.223342	0.091165	26.834396	-13.900966	0.000000	8.068615	3.348209	-2.837273	2.134432	0.037253	27.951934	-15.179118	0.000000	0.018510	-1.027110	1.240060	0.034374	-1.366057	1.317564	0.030409	-2.497316	1.317564	0.021155	-2.497316	1.085053	0.017188	-2.094483	1.007549	0.010576	-1.590994	0.930045	0.132212	-11.618876	6.896842	0.000000	0.000000	13.696522	9.755463	-8.515558	30.107932	8.307509	25.246608	138.957197	89.314252	-4.571864	12.004057	0.134042	-17.044897	41.961499	26.231111	82.534755	-13.018258	-6.673625
2.237288	-6.902456	-10.634190	72.743602	0.313712	0.914589	0.603360	11.509189	-2.171051	23.004498	5.548626	0.096842	27.088550	-13.504871	0.000000	8.018540	3.345624	-2.736505	2.172658	0.037920	27.838964	-15.342819	0.000000	0.013986	-1.026266	1.213624	0.025974	-1.364934	1.289475	0.022978	-2.495264	1.289475	0.015985	-2.495264	1.061921	0.012988	-2.092762	0.986069	0.007992	-1.589687	0.910218	0.099903	-11.609331	6.749812	0.000000	0.000000	13.672686	9.858605	-8.424031	30.493326	8.210847	25.248915	138.801410	89.309720	-4.215720	12.222728	0.171469	-17.049000	42.149764	26.180842	82.939441	-13.522863	-6.790974
2.254237	-6.878203	-10.615644	72.703501	0.313626	0.914555	0.603494	11.624802	-2.126049	22.646217	5.860057	0.102277	27.372989	-12.985477	0.000000	7.987061	3.333562	-2.726016	2.217980	0.038711	27.763122	-15.413948	0.000000	0.010932	-1.024760	1.200717	0.020302	-1.362931	1.275762	0.017960	-2.491602	1.275762	0.012494	-2.491602	1.050628	0.010151	-2.089691	0.975583	0.006246	-1.587354	0.900538	0.078085	-11.592294	6.678029	0.000000	0.000000	13.637404	9.915565	-8.418580	30.870688	8.052114	25.293469	138.703509	89.308272	-4.009602	12.401290	0.242420	-17.045588	42.432976	26.108342	83.341893	-14.064580	-6.919425
2.271186	-6.851632	-10.611005	72.658514	0.313545	0.914510	0.603619	11.740418	-2.082807	22.249892	6.134607	0.107069	27.687871	-12.368209	0.000000	7.966513	3.315229	-2.720484	2.250190	0.039273	27.703368	-15.479125	0.000000	0.008838	-1.022371	1.196185	0.016413	-1.359753	1.270947	0.014520	-2.485792	1.270947	0.010101	-2.485792	1.046662	0.008207	-2.084819	0.971900	0.005050	-1.583652	0.897139	0.063128	-11.565263	6.652823	0.000000	0.000000	13.571721	9.924859	-8.460951	31.217736	7.860849	25.385128	138.653507	89.308962	-3.963465	12.523331	0.332709	-17.052388	42.790853	26.057538	83.700705	-14.617197	-6.980896
2.288136	-6.823847	-10.610012	72.602985	0.313476	0.914464	0.603751	11.843758	-2.042736	21.877152	6.364118	0.111075	28.026709	-11.720124	0.000000	7.950688	3.293096	-2.746984	2.269771	0.039615	27.680786	-15.502149	0.000000	0.006690	-1.019275	1.196138	0.012423	-1.355636	1.270897	0.010990	-2.478266	1.270897	0.007645	-2.478266	1.046621	0.006212	-2.078506	0.971862	0.003822	-1.578857	0.897104	0.047783	-11.530246	6.652563	0.000000	0.000000	13.454285	9.889961	-8.498981	31.522128	7.674956	25.513489	138.622758	89.311308	-4.032818	12.583174	0.415394	-17.064285	43.123386	26.030418	84.007443	-15.126129	-6.994573
2.305085	-6.791226	-10.608306	72.561351	0.313388	0.914414	0.603906	11.930930	-2.009746	21.464956	6.556608	0.114434	28.409902	-10.981621	0.000000	7.938348	3.267079	-2.749042	2.275026	0.039707	27.693529	-15.514431	0.000000	0.004165	-1.014871	1.189813	0.007736	-1.349778	1.264176	0.006843	-2.467557	1.264176	0.004761	-2.467557	1.041086	0.003868	-2.069524	0.966723	0.002380	-1.572035	0.892360	0.029753	-11.480420	6.617383	0.000000	0.000000	13.272469	9.817833	-8.471031	31.785362	7.529643	25.670239	138.577885	89.314775	-4.162691	12.610328	0.474474	-17.072658	43.392998	26.013254	84.263287	-15.566133	-6.955836
2.322034	-6.764045	-10.590896	72.514889	0.313320	0.914370	0.604103	11.990969	-1.992370	21.069404	6.709407	0.117101	28.806435	-10.223581	0.000000	7.918455	3.247192	-2.771263	2.264871	0.039529	27.751359	-15.481214	0.000000	0.000210	-1.010875	1.177856	0.000390	-1.344464	1.251472	0.000345	-2.457842	1.251472	0.000240	-2.457842	1.030624	0.000195	-2.061377	0.957008	0.000120	-1.565846	0.883392	0.001499	-11.435225	6.550881	0.000000	0.000000	13.021999	9.721421	-8.349656	31.992876	7.466482	25.822283	138.495160	89.319168	-4.274573	12.647796	0.499589	-17.078390	43.566771	26.000684	84.469516	-15.913230	-6.852183
